<svg width="24" height="24" viewBox="0 0 24 24" fill="none" xmlns="http://www.w3.org/2000/svg">
<mask id="mask0_1000_31211" style="mask-type:alpha" maskUnits="userSpaceOnUse" x="0" y="0" width="24" height="24">
<circle cx="12" cy="12" r="12" fill="#B0BEC5"/>
</mask>
<g mask="url(#mask0_1000_31211)">
<path fill-rule="evenodd" clip-rule="evenodd" d="M25.2016 -2.39844H-2.39844V25.2016H25.2016V-2.39844ZM8.70853 19.9524C9.55548 19.9894 9.81795 20.0009 11.9971 20.0009C14.1701 20.0009 14.4481 20.0009 15.2966 19.9521C15.9603 19.9387 16.6169 19.813 17.2386 19.5804C18.3118 19.1639 19.1608 18.3169 19.5786 17.2455C19.8123 16.624 19.9385 15.9673 19.9517 15.3036C19.9891 14.4635 20.0015 14.1796 20.0015 12.0151C20.0015 9.85051 20.0015 9.57284 19.9517 8.72298C19.9416 8.05077 19.815 7.38539 19.5777 6.75625C19.1609 5.68451 18.312 4.83716 17.2386 4.42137C16.616 4.18744 15.958 4.06143 15.293 4.04878L15.2783 4.04814C14.4504 4.01227 14.1874 4.00087 11.9971 4.00087C9.83025 4.00087 9.5513 4.00087 8.70288 4.04878C8.03956 4.06133 7.3833 4.18735 6.76262 4.42137C5.68887 4.83669 4.83981 5.6842 4.42348 6.75625C4.19038 7.37635 4.06451 8.0315 4.05124 8.69371L4.05121 8.69445C4.01303 9.54105 4.00149 9.79703 4.00149 11.9849C4.00149 14.1504 4.00149 14.4289 4.05124 15.2788C4.06423 15.9419 4.1901 16.5979 4.42348 17.2189C4.84026 18.2895 5.68794 19.1363 6.75996 19.5529C7.37956 19.7952 8.03603 19.9302 8.7011 19.9521L8.70853 19.9524ZM8.73263 5.45339C9.57052 5.41571 9.80486 5.40518 11.9668 5.40518H11.9669C14.1292 5.40518 14.354 5.40518 15.213 5.45397C15.7198 5.45975 16.2218 5.55309 16.6967 5.72986C17.3941 6.00069 17.9454 6.55184 18.2158 7.2486C18.3907 7.72277 18.4841 8.22305 18.4921 8.72831C18.5303 9.5755 18.5401 9.80349 18.5401 11.9707C18.5401 14.1379 18.5401 14.3641 18.5019 15.2122H18.4921C18.4864 15.7235 18.393 16.23 18.2158 16.7097C17.9448 17.4054 17.3936 17.9555 16.6967 18.2258C16.2217 18.4022 15.7198 18.4955 15.213 18.5016L15.2087 18.5018C14.3709 18.5407 14.1423 18.5513 11.9668 18.5513C9.80627 18.5513 9.57973 18.5513 8.71976 18.5016C8.21324 18.4962 7.71153 18.4028 7.23703 18.2258C6.53617 17.9578 5.98144 17.4065 5.70988 16.7079C5.53495 16.2331 5.44154 15.7323 5.43359 15.2264C5.3945 14.3721 5.3865 14.114 5.3865 11.9849C5.3865 9.8301 5.3865 9.60478 5.43359 8.74516C5.43892 8.23417 5.53239 7.72791 5.70988 7.2486C5.98104 6.54955 6.53586 5.99778 7.23703 5.72986C7.71186 5.55398 8.21336 5.46067 8.71976 5.45397L8.73263 5.45339ZM8.20081 13.5528C8.8374 15.0851 10.3357 16.0836 11.9971 16.0825C14.2634 16.0781 16.099 14.2436 16.1014 11.9805C16.1011 10.3216 15.0999 8.82624 13.5649 8.1919C12.0298 7.55756 10.2632 7.90914 9.089 9.08267C7.91479 10.2562 7.56423 12.0205 8.20081 13.5528ZM9.33186 11.9787C9.33186 10.5089 10.5251 9.31735 11.9971 9.31735C13.4676 9.32077 14.6588 10.5103 14.6622 11.9787C14.6622 13.4485 13.469 14.64 11.9971 14.64C10.5251 14.64 9.33186 13.4485 9.33186 11.9787ZM15.3072 7.72676C15.3062 8.25422 15.7331 8.68288 16.2613 8.68484C16.5162 8.68555 16.7608 8.58489 16.9412 8.40511C17.1216 8.22533 17.2228 7.98123 17.2226 7.72675C17.2216 7.19929 16.7931 6.77223 16.2649 6.77223C15.7367 6.77223 15.3082 7.1993 15.3072 7.72676Z" fill="#6D7582"/>
</g>
</svg>
