<svg width="24" height="24" viewBox="0 0 24 24" fill="none" xmlns="http://www.w3.org/2000/svg">
<circle cx="12" cy="12" r="12" fill="#6D7582"/>
<path d="M12.0044 6.77681L10.4379 8.34332C10.1507 8.63052 10.1507 9.10047 10.4379 9.38766C10.7251 9.67486 11.1951 9.67486 11.4823 9.38766L13.0488 7.82115C13.9104 6.95957 15.3202 6.95957 16.1818 7.82115C17.0434 8.68273 17.0434 10.0926 16.1818 10.9542L14.6153 12.5207C14.3281 12.8079 14.3281 13.2778 14.6153 13.565C14.9025 13.8522 15.3724 13.8522 15.6596 13.565L17.2262 11.9985C18.6673 10.5573 18.6673 8.218 17.2262 6.77681C15.785 5.33562 13.4456 5.33562 12.0044 6.77681ZM9.91576 14.0872C10.203 14.3744 10.6729 14.3744 10.9601 14.0872L14.0931 10.9542C14.3803 10.667 14.3803 10.197 14.0931 9.90983C13.8059 9.62264 13.336 9.62264 13.0488 9.90983L9.91576 13.0429C9.62856 13.3301 9.62856 13.8 9.91576 14.0872ZM12.5266 14.6094L10.9601 16.1759C10.0985 17.0375 8.68865 17.0375 7.82707 16.1759C6.96549 15.3143 6.96549 13.9044 7.82707 13.0429L9.39359 11.4763C9.68078 11.1892 9.68078 10.7192 9.39359 10.432C9.10639 10.1448 8.63644 10.1448 8.34924 10.432L6.78273 11.9985C5.34154 13.4397 5.34154 15.779 6.78273 17.2202C8.22392 18.6614 10.5632 18.6614 12.0044 17.2202L13.571 15.6537C13.8581 15.3665 13.8581 14.8966 13.571 14.6094C13.2838 14.3222 12.8138 14.3222 12.5266 14.6094Z" fill="white"/>
</svg>
