<svg width="24" height="24" viewBox="0 0 24 24" fill="none" xmlns="http://www.w3.org/2000/svg">
<path fill-rule="evenodd" clip-rule="evenodd" d="M12 24C18.6274 24 24 18.6274 24 12C24 5.37258 18.6274 0 12 0C5.37258 0 0 5.37258 0 12C0 18.6274 5.37258 24 12 24ZM19.9694 7.41581C19.7309 8.11798 19.2307 8.71394 18.5622 9.09242C19.1964 9.02103 19.8158 8.86011 20.3997 8.615C19.97 9.22388 19.4291 9.75529 18.8023 10.1843C18.8088 10.3142 18.812 10.4449 18.812 10.5762C18.8288 12.8681 17.8749 15.0708 16.1636 16.6915C14.4522 18.3123 12.1264 19.2158 9.70615 19.2001C7.96654 19.2017 6.26322 18.729 4.79973 17.8384C5.05345 17.8666 5.3087 17.8805 5.56414 17.8801C7.00532 17.8824 8.4054 17.4254 9.53909 16.5828C8.17027 16.5575 6.96932 15.7122 6.5493 14.4782C7.02899 14.5652 7.52333 14.5473 7.9946 14.4259C6.50111 14.1399 5.42722 12.897 5.42692 11.4541V11.4159C5.87105 11.6501 6.36787 11.7804 6.87595 11.7959C5.47089 10.9052 5.03751 9.13438 5.88557 7.74916C7.51058 9.64252 9.90796 10.7936 12.4812 10.9159C12.1579 9.58077 12.8185 8.20594 14.0938 7.55964C15.3692 6.91334 16.9435 7.15558 17.9372 8.15101C18.6539 8.01744 19.3412 7.76879 19.9694 7.41581Z" fill="#6D7582"/>
</svg>
