<svg width="24" height="24" viewBox="0 0 24 24" fill="none" xmlns="http://www.w3.org/2000/svg">
<path fill-rule="evenodd" clip-rule="evenodd" d="M12 24C18.6274 24 24 18.6274 24 12C24 5.37258 18.6274 0 12 0C5.37258 0 0 5.37258 0 12C0 18.6274 5.37258 24 12 24ZM11.9943 16.8003H12.0086C12.1928 16.8003 16.533 16.7975 17.6265 16.5214C18.2453 16.3622 18.7291 15.9025 18.8977 15.3135C19.1028 14.2258 19.2034 13.1225 19.1984 12.0174C19.2125 10.9077 19.1145 9.79933 18.9056 8.70755C18.7383 8.11909 18.2558 7.65931 17.638 7.49967C16.5236 7.20849 12.0497 7.20027 12.0043 7.20027H11.9892C11.8051 7.20027 7.4656 7.20027 6.37066 7.47432C5.75257 7.64283 5.2712 8.10567 5.10019 8.6959C4.89538 9.78506 4.79497 10.8897 4.8002 11.9962C4.79206 13.1008 4.88982 14.2039 5.09228 15.2916C5.25871 15.8813 5.74221 16.342 6.36131 16.5009C7.48718 16.7921 11.9497 16.8003 11.9943 16.8003ZM10.5662 14.055L10.5698 9.94421L14.3158 11.9996L10.5662 14.055Z" fill="#B1B8C0"/>
</svg>
