<svg width="40" height="40" viewBox="0 0 40 40" fill="none" xmlns="http://www.w3.org/2000/svg">
<circle cx="20" cy="20" r="19.5" fill="white" stroke="#E3E7EB"/>
<path d="M20 23.1111C21.3255 23.1111 22.4 22.0664 22.4 20.7778C22.4 19.4891 21.3255 18.4444 20 18.4444C18.6745 18.4444 17.6 19.4891 17.6 20.7778C17.6 22.0664 18.6745 23.1111 20 23.1111Z" fill="#1E68FA"/>
<path d="M23.864 14.5556L22.4 13H17.6L16.136 14.5556H12V27H28V14.5556H23.864ZM20 24.6667C17.792 24.6667 16 22.9244 16 20.7778C16 18.6311 17.792 16.8889 20 16.8889C22.208 16.8889 24 18.6311 24 20.7778C24 22.9244 22.208 24.6667 20 24.6667Z" fill="#1E68FA"/>
</svg>
