<svg width="24" height="24" viewBox="0 0 24 24" fill="none" xmlns="http://www.w3.org/2000/svg">
<path fill-rule="evenodd" clip-rule="evenodd" d="M3 5H21V6.08984L11.9996 12.3901L11.4429 12.0004L11.4433 12.0001H11.4425L3 6.09037V5ZM9.69909 12.0004L3 7.31103V16.6897L9.69909 12.0004ZM3 17.9104V19H21V17.9096L13.4292 12.61L11.9996 13.6108L10.571 12.6107L3 17.9104ZM14.3011 11.9997L21 16.6889V7.3105L14.3011 11.9997Z" fill="#353C49"/>
<path d="M24 5C24 7.20914 22.2091 9 20 9C17.7909 9 16 7.20914 16 5C16 2.79086 17.7909 1 20 1C22.2091 1 24 2.79086 24 5Z" fill="#1E68FA"/>
</svg>
