<svg width="20" height="20" viewBox="0 0 20 20" fill="none" xmlns="http://www.w3.org/2000/svg">
<path fill-rule="evenodd" clip-rule="evenodd" d="M9.5 13.0001C11.433 13.0001 13 11.4331 13 9.50005C13 7.56701 11.433 6 9.5 6C7.56702 6 6 7.56701 6 9.50005C6 11.4331 7.56702 13.0001 9.5 13.0001ZM9.5 15.0001C12.5376 15.0001 15 12.5376 15 9.50005C15 6.46246 12.5376 4 9.5 4C6.46243 4 4 6.46246 4 9.50005C4 12.5376 6.46243 15.0001 9.5 15.0001Z" fill="#B1B8C0"/>
<path fill-rule="evenodd" clip-rule="evenodd" d="M11.6719 12.8438L12.9447 11.571L17.1873 15.8136L15.9145 17.0864L11.6719 12.8438Z" fill="#B1B8C0"/>
</svg>
