<svg width="58" height="42" viewBox="0 0 58 42" fill="none" xmlns="http://www.w3.org/2000/svg">
<path fill-rule="evenodd" clip-rule="evenodd" d="M53.7284 0C56.0875 0 58 1.79086 58 4V38C58 40.2091 56.0875 42 53.7284 42H4.27161C1.91247 42 0 40.2091 0 38V4C0 1.79086 1.91247 0 4.27161 0H53.7284ZM12.8148 3H45.1852V39H12.8148V3Z" fill="#1E68FA"/>
<path d="M5 12C5 11.4477 5.44772 11 6 11C6.55228 11 7 11.4477 7 12V30C7 30.5523 6.55228 31 6 31C5.44772 31 5 30.5523 5 30V12Z" fill="white"/>
<path d="M51 12C51 11.4477 51.4477 11 52 11C52.5523 11 53 11.4477 53 12V30C53 30.5523 52.5523 31 52 31C51.4477 31 51 30.5523 51 30V12Z" fill="white"/>
<path d="M27 4C27 2.89543 27.8954 2 29 2C30.1046 2 31 2.89543 31 4V38C31 39.1046 30.1046 40 29 40C27.8954 40 27 39.1046 27 38V4Z" fill="white"/>
</svg>
